#N canvas 0 0 1280 665 10;
#X obj 86 249 osc~;
#X obj 184 84 metro;
#X obj 184 55 tgl 15 0 empty empty empty 17 7 0 10 -262144 -1 -1 1
1;
#X floatatom 211 58 5 0 0 0 - - -, f 5;
#X obj 86 224 mtof;
#X obj 130 11 loadbang;
#X msg 213 26 125;
#X msg 87 199 60;
#X obj 87 168 sel 0;
#X msg 130 198 62;
#X obj 130 167 sel 1;
#X obj 172 166 sel 2;
#X msg 172 197 63;
#X obj 214 166 sel 3;
#X msg 214 197 67;
#X msg 255 196 72;
#X obj 255 165 sel 4;
#X obj 205 112 + 1;
#X obj 174 112 f;
#X obj 86 139 mod 4;
#X obj 329 510 outlet~;
#X obj 325 437 *~;
#X obj 481 170 + 1;
#X obj 450 170 f;
#X obj 449 209 mod 2;
#X obj 449 249 moses 1;
#X obj 297 299 line~;
#X obj 297 299 line~;
#X obj 389 330 line~;
#X msg 390 298 0 100;
#X msg 684 252 60;
#X obj 684 221 sel 0;
#X msg 727 251 62;
#X obj 727 220 sel 1;
#X obj 769 219 sel 2;
#X msg 769 250 63;
#X obj 811 219 sel 3;
#X msg 811 250 67;
#X msg 852 249 72;
#X obj 852 218 sel 4;
#X obj 692 335 osc~;
#X obj 692 310 mtof;
#X msg 297 271 0.3 125;
#X obj 683 183 random 7;
#X msg 901 250 68;
#X obj 901 219 sel 5;
#X obj 956 216 sel 6;
#X msg 956 247 70;
#X connect 0 0 21 0;
#X connect 1 0 18 0;
#X connect 1 0 23 0;
#X connect 1 0 43 0;
#X connect 2 0 1 0;
#X connect 3 0 1 1;
#X connect 4 0 0 0;
#X connect 5 0 2 0;
#X connect 5 0 6 0;
#X connect 6 0 3 0;
#X connect 7 0 4 0;
#X connect 8 0 7 0;
#X connect 9 0 4 0;
#X connect 10 0 9 0;
#X connect 11 0 12 0;
#X connect 12 0 4 0;
#X connect 13 0 14 0;
#X connect 14 0 4 0;
#X connect 15 0 4 0;
#X connect 16 0 15 0;
#X connect 17 0 18 1;
#X connect 18 0 17 0;
#X connect 18 0 19 0;
#X connect 19 0 8 0;
#X connect 19 0 10 0;
#X connect 19 0 11 0;
#X connect 19 0 13 0;
#X connect 19 0 16 0;
#X connect 21 0 20 0;
#X connect 22 0 23 1;
#X connect 23 0 22 0;
#X connect 23 0 24 0;
#X connect 24 0 25 0;
#X connect 25 0 42 0;
#X connect 25 1 29 0;
#X connect 26 0 21 1;
#X connect 28 0 21 1;
#X connect 29 0 28 0;
#X connect 30 0 41 0;
#X connect 31 0 30 0;
#X connect 32 0 41 0;
#X connect 33 0 32 0;
#X connect 34 0 35 0;
#X connect 35 0 41 0;
#X connect 36 0 37 0;
#X connect 37 0 41 0;
#X connect 38 0 41 0;
#X connect 39 0 38 0;
#X connect 40 0 21 0;
#X connect 41 0 40 0;
#X connect 42 0 26 0;
#X connect 43 0 31 0;
#X connect 43 0 39 0;
#X connect 43 0 36 0;
#X connect 43 0 34 0;
#X connect 43 0 33 0;
#X connect 43 0 45 0;
#X connect 43 0 46 0;
#X connect 44 0 41 0;
#X connect 45 0 44 0;
#X connect 46 0 47 0;
#X connect 47 0 41 0;
